:SAMPLES-PER-SECOND 30
:FULLY-SPECIFIED
:DEGREES
94
root  -24.5673 40.4303 -14.2571 -3.63144 45.4855 -1.03696
RightUpLeg  -10.3024 -15.9573 -10.296
RightLeg  27.9939 -7.17478 -4.32432
RightFoot  -3.40936 -0.258046 3.37521
RightToes  0.00048216 0.542163 -0.142577
Spine  26.9635 -2.94516 7.69464
Spine1  7.49617 -1.08822 -1.09235
HEad  -15.2987 26.9404 -22.1163
LeftShoulder1  10.8233 -16.3443 -47.5937
LeftArm  10.6389 8.75377 -33.4077
LeftForeArm  103.625 -80.1923 -96.2698
LeftHand  -0.25398 0.0180481 5.50724
RightShoulder  5.23356 9.81703 33.345
RightArm  -1.11652 -22.2203 37.9348
RightForeArm  96.6179 74.0801 133.558
RightHand  -7.23422 15.4149 -39.2507
LeftUpLeg  -3.30188 13.6463 -0.38402
LeftLeg  15.7486 13.2748 -0.161346
LeftFoot  -10.411 0.0447097 2.21339
LeftToes  1.06245e-005 4.65856e-005 -8.18504e-006
95
root  -23.4877 40.557 -13.9596 -4.95996 49.4194 -1.91125
RightUpLeg  -13.3453 -18.5555 -5.81165
RightLeg  29.6519 -7.57883 -4.8664
RightFoot  -3.61034 -0.13177 1.60098
RightToes  0.00048216 0.542163 -0.142577
Spine  26.1527 -3.06916 6.86999
Spine1  7.59373 -1.86352 0.393519
HEad  -13.5619 26.0598 -20.3713
LeftShoulder1  10.6139 -16.1459 -47.1359
LeftArm  10.4097 8.21639 -33.9477
LeftForeArm  101.681 -80.2266 -94.2484
LeftHand  -0.25398 0.0180481 5.50724
RightShoulder  5.24251 9.8061 33.444
RightArm  -0.821522 -22.2002 37.6432
RightForeArm  95.6581 74.1172 133.282
RightHand  -7.37528 15.728 -39.4064
LeftUpLeg  0.247718 9.21352 -0.284201
LeftLeg  12.9897 13.9765 -1.62595
LeftFoot  -10.7131 0.0505111 2.55957
LeftToes  1.06245e-005 4.65856e-005 -8.18504e-006
96
root  -22.3815 40.5572 -13.6181 -6.02167 52.772 -2.49272
RightUpLeg  -15.9292 -20.4311 -1.66173
RightLeg  27.5755 -6.31931 -3.80623
RightFoot  -2.8337 -0.163498 1.92239
RightToes  0.00048216 0.542163 -0.142577
Spine  25.4082 -2.93613 5.89016
Spine1  7.61678 -2.27553 1.42721
HEad  -11.8325 24.8999 -18.5054
LeftShoulder1  10.4288 -15.965 -46.7356
LeftArm  10.4514 7.47557 -34.4431
LeftForeArm  99.8757 -80.2515 -92.2973
LeftHand  -0.25398 0.0180481 5.50724
RightShoulder  5.23824 9.75534 33.562
RightArm  -0.972973 -22.3445 37.6112
RightForeArm  95.335 73.9955 133.636
RightHand  -7.5112 15.9482 -39.691
LeftUpLeg  3.28599 6.96464 -0.573339
LeftLeg  11.3946 13.1604 -2.39527
LeftFoot  -11.6143 0.0775189 3.12846
LeftToes  1.06245e-005 4.65856e-005 -8.18504e-006
97
root  -21.2104 40.4084 -13.2356 -6.82025 55.4673 -2.38925
RightUpLeg  -17.2439 -20.9776 1.63524
RightLeg  22.2541 -4.47118 -2.40582
RightFoot  -2.33764 -0.287521 3.45607
RightToes  0.00048216 0.542163 -0.142577
Spine  24.9059 -2.59597 4.81585
Spine1  7.84234 -2.26118 1.69997
HEad  -10.4288 23.2824 -16.8082
LeftShoulder1  10.3336 -15.8934 -46.4734
LeftArm  10.7407 6.34005 -34.8249
LeftForeArm  97.9649 -80.2678 -90.1802
LeftHand  -0.25398 0.0180481 5.50724
RightShoulder  5.29709 9.77617 33.9397
RightArm  -1.49659 -22.3554 37.5131
RightForeArm  95.1973 73.7084 134.545
RightHand  -7.587 15.9529 -40.0479
LeftUpLeg  6.27726 5.96568 -1.13753
LeftLeg  11.0352 11.9248 -2.71543
LeftFoot  -13.456 0.143607 3.42497
LeftToes  1.06245e-005 4.65856e-005 -8.18504e-006
98
root  -19.9365 40.1707 -12.8229 -7.39917 58.209 -1.74182
RightUpLeg  -16.9608 -18.8482 2.94291
RightLeg  14.7 -5.04668 -0.51959
RightFoot  -2.19804 -0.351034 4.20336
RightToes  0.00048216 0.542163 -0.142577
Spine  24.4049 -2.34809 3.69055
Spine1  8.36623 -2.34168 1.93999
HEad  -9.18959 21.5295 -15.5426
LeftShoulder1  10.3114 -15.8705 -46.4267
LeftArm  11.1076 4.98427 -35.2295
LeftForeArm  95.2976 -80.2667 -87.288
LeftHand  -0.25398 0.0180481 5.50724
RightShoulder  5.39086 9.87697 34.3364
RightArm  -2.03387 -22.0644 37.2115
RightForeArm  94.7879 73.4615 135.257
RightHand  -7.72012 16.0872 -40.4551
LeftUpLeg  9.59787 5.5098 -1.87129
LeftLeg  11.0186 10.0016 -2.92719
LeftFoot  -15.2823 0.218817 3.68525
LeftToes  1.06245e-005 4.65856e-005 -8.18504e-006
99
root  -18.5487 39.8923 -12.3958 -7.68982 61.5235 -0.985062
RightUpLeg  -15.2121 -8.96146 0.288033
RightLeg  5.70607 -14.8946 3.49588
RightFoot  -1.53454 -0.400767 4.52907
RightToes  0.00048216 0.542163 -0.142577
Spine  23.4913 -2.40053 2.66363
Spine1  8.99924 -2.85407 2.5928
HEad  -7.83458 19.9385 -14.6907
LeftShoulder1  10.335 -15.8437 -46.6026
LeftArm  11.4508 3.79791 -35.686
LeftForeArm  92.3067 -80.2348 -84.101
LeftHand  -0.25398 0.0180481 5.50724
RightShoulder  5.41051 9.90048 34.4112
RightArm  -2.38578 -21.6933 36.8712
RightForeArm  94.5061 73.3676 135.503
RightHand  -7.89862 16.4423 -40.6926
LeftUpLeg  13.0292 5.19344 -2.59298
LeftLeg  10.8616 7.41897 -3.01039
LeftFoot  -16.6545 0.310846 4.52248
LeftToes  1.06245e-005 4.65856e-005 -8.18504e-006
100
root  -17.0238 39.5292 -11.9505 -7.93425 65.0965 -0.331543
RightUpLeg  -14.0869 -4.19172 -1.21706
RightLeg  -2.43564 -20.1885 6.70337
RightFoot  -1.04637 -0.548695 6.04086
RightToes  0.00048216 0.542163 -0.142577
Spine  22.3205 -2.69148 2.00853
Spine1  9.46028 -3.48224 3.10246
HEad  -6.32981 18.391 -14.016
LeftShoulder1  10.3741 -15.8243 -46.8319
LeftArm  11.8869 2.87234 -36.1314
LeftForeArm  89.3725 -80.1721 -81.0737
LeftHand  -0.25398 0.0180481 5.50724
RightShoulder  5.33497 9.74615 34.3127
RightArm  -2.60848 -21.5025 36.4932
RightForeArm  94.7435 73.2571 135.869
RightHand  -7.98727 16.6932 -40.6809
LeftUpLeg  16.5111 5.15952 -2.93188
LeftLeg  11.0259 4.55458 -2.99039
LeftFoot  -18.4162 0.456676 5.58686
LeftToes  1.06245e-005 4.65856e-005 -8.18504e-006
101
root  -15.3695 39.0795 -11.4836 -8.89664 68.4273 -0.14949
RightUpLeg  -13.6148 -4.44437 -1.38359
RightLeg  -5.10959 -19.7338 7.3311
RightFoot  -2.01986 -0.682164 8.16093
RightToes  0.00048216 0.542163 -0.142577
Spine  21.5334 -3.07624 1.92216
Spine1  9.64303 -3.92924 3.1638
HEad  -4.8262 16.7749 -13.3394
LeftShoulder1  10.3605 -15.7831 -46.8712
LeftArm  12.4659 2.18454 -36.6227
LeftForeArm  86.8973 -80.0973 -78.5444
LeftHand  -0.25398 0.0180481 5.50724
RightShoulder  5.25041 9.52387 34.3505
RightArm  -2.70307 -21.4439 35.9111
RightForeArm  95.016 72.9937 136.678
RightHand  -8.00816 16.735 -40.7075
LeftUpLeg  20.3348 5.75921 -2.27513
LeftLeg  11.8511 1.14289 -3.18634
LeftFoot  -20.6527 0.60109 5.86876
LeftToes  1.06245e-005 4.65856e-005 -8.18504e-006
